#!OML:ASF E:/inclinewalkrobotboard/Project1/Captureday1/Session1/subject1.ASF
:FULLY-SPECIFIED
:DEGREES
138
root 0 0 0 15.057035283726798 38.90166979959457 1.1104995391502004
lowerback 13.147887501987514 5.1780374370040425 5.850777324221598
upperback -4.129554062953544 7.195791564622886 2.154105003642318
thorax -11.325376184766757 3.3610923731045315 -1.7499463321459108
lowerneck -16.313189202673932 -8.544193504491286 -3.0031727942928166
upperneck 25.613353479282875 -13.68302144835973 3.421031325043664
head 11.093140069168038 -6.046157624765233 0.16287465764209252
rclavicle -1.2310675657129285E-14 -7.803117690840744E-16
rhumerus -32.74411450609443 15.838505717334177 -83.45632090358275
rradius 32.4155374703983
rwrist 8.359167492921038
rhand -19.018372574592924 -4.404060492566748
rfingers 7.125019999999963
rthumb 7.366655954116655 -34.41106847966549
lclavicle 8.203114667826765E-16 4.720224568592439E-15
lhumerus -47.996188252536534 19.959660302771958 66.14397202363271
lradius 51.143721629895545
lwrist -12.302951631817677
lhand -14.215929174213464 17.098401875811557
lfingers 7.125019999999911
lthumb 11.942327957718977 46.34593989780654
rfemur -7.1963667539760365 20.165557449038715 37.94358200942521
rtibia -1.115733455875926
rfoot 4.135619146637023 -27.37469605303979
rtoes -32.575513483360496
lfemur -40.666132438146995 -19.22556158863931 -20.543864657843404
ltibia 26.906639141298193
lfoot -29.024596777345696 -5.533780646848994
ltoes -43.80270041905189
139
root 0 0 0 15.05924264693573 38.89991882369009 1.1121487166186657
lowerback 13.150087122505239 5.177387556650446 5.850203280916033
upperback -4.1288220694973345 7.194790863797956 2.154645454653199
thorax -11.325777720602566 3.3606665562609357 -1.7489254062342203
lowerneck -16.31436540065449 -8.54448546040763 -3.004357042809752
upperneck 25.611343193827118 -13.683098489378118 3.4196093755928403
head 11.092521793450693 -6.046574074551003 0.16252094345195478
rclavicle -1.2307643243644889E-14 -7.813952567590205E-16
rhumerus -32.74076660413676 15.839786525676338 -83.45659406907566
rradius 32.41446737282506
rwrist 8.357690424819033
rhand -19.018945468596264 -4.4056377394969655
rfingers 7.125019999999963
rthumb 7.366088871739241 -34.41269368742392
lclavicle 8.237401160733065E-16 4.715356756539606E-15
lhumerus -47.995701149923136 19.95824249523691 66.14442689767421
lradius 51.14570052495397
lwrist -12.303946591664165
lhand -14.218211056848514 17.09793303648458
lfingers 7.125019999999911
lthumb 11.940123436567745 46.3455759224873
rfemur -7.214003791263711 20.169396303715907 37.947965770540236
rtibia -1.1002165950321654
rfoot 4.1262103481258805 -27.37201818163431
rtoes -32.53499226418097
lfemur -40.680385488492774 -19.219088928459335 -20.544841050669934
ltibia 26.931044881828846
lfoot -29.022889485917442 -5.542457327533532
ltoes -43.801997603791364
140
root 0 0 0 15.058085974363497 38.890819036330306 1.1038556470995933
lowerback 13.140944876148552 5.180685566810331 5.856374485395363
upperback -4.132885202527689 7.200060812133074 2.1523592935527294
thorax -11.325593138187122 3.362753269304097 -1.7556392707015696
lowerneck -16.30914297830558 -8.531895971802884 -2.9876277948337266
upperneck 25.62563697994147 -13.666404465337418 3.4119120090297788
head 11.097322319067318 -6.037211913263092 0.15898435469407435
rclavicle -1.2317484159671398E-14 -7.769925421898542E-16
rhumerus -32.70687153588537 15.881718440628756 -83.47943651605281
rradius 32.502267980736214
rwrist 8.28344645423497
rhand -19.02387776119938 -4.405150884772025
rfingers 7.125019999999963
rthumb 7.360792475516332 -34.41258767095216
lclavicle 7.398512002543138E-16 4.693733881507681E-15
lhumerus -48.00525308965222 19.942694006916895 66.16294320358332
lradius 51.14380976863178
lwrist -12.280875677531117
lhand -14.201049917700209 17.107208049432185
lfingers 7.125019999999911
lthumb 11.956859162743928 46.35408650426742
rfemur -7.195834109380335 20.194020198165447 37.96347760817754
rtibia -1.137386759217943
rfoot 4.076841661321659 -27.369507431629984
rtoes -32.56776512238834
lfemur -40.797937040821374 -19.17809877514538 -20.52642536752185
ltibia 27.06990800105725
lfoot -29.07128009181061 -5.546120253160913
ltoes -43.83733287529927
141
root 0 0 0 15.055313074171679 38.9034056917351 1.106178460563084
lowerback 13.139154599793429 5.180376417302389 5.855092794699951
upperback -4.133212332476949 7.199582412178515 2.1529187481673175
thorax -11.324712925655867 3.362650880551476 -1.754064783526725
lowerneck -16.310006076666998 -8.540283446986475 -2.997909864223776
upperneck 25.621619035969815 -13.677325742313649 3.416820818954023
head 11.095859056125684 -6.042911760933421 0.161183639971878
rclavicle -1.232481320064901E-14 -7.924354557043888E-16
rhumerus -32.718087563417185 15.863948466432488 -83.46552300312011
rradius 32.4786045333197
rwrist 8.321365600110575
rhand -19.02181293631596 -4.398675760472045
rfingers 7.125019999999963
rthumb 7.363137539005046 -34.4060091726291
lclavicle 7.573110707964756E-16 4.697569012098248E-15
lhumerus -47.99646668525048 19.947769527820384 66.15643616048682
lradius 51.15591560744975
lwrist -12.286394498552166
lhand -14.213555026394815 17.104341715541455
lfingers 7.125019999999911
lthumb 11.944705363675723 46.3519722885069
rfemur -7.170431304946089 20.174523745520794 37.95618816884567
rtibia -1.1348474811827707
rfoot 4.119239975492388 -27.377756997512463
rtoes -32.547019418619286
lfemur -40.70074267495011 -19.21562903313626 -20.529339270687743
ltibia 26.931125232161804
lfoot -29.060776443021272 -5.506343041020786
ltoes -43.83006812118446
